<svg width="475" height="442" viewBox="0 0 475 442" fill="none" xmlns="http://www.w3.org/2000/svg">
<path d="M0 84C0 72.402 9.40202 63 21 63H475V421C475 432.598 465.598 442 454 442H21C9.40203 442 0 432.598 0 421V84Z" fill="black"/>
<path d="M175 15C175 6.71573 181.716 0 190 0H460C468.284 0 475 6.71573 475 15V69H175V15Z" fill="black"/>
<path d="M165.34 63.4264C166.287 63.4264 167.224 63.2539 168.176 63.2539C168.704 63.2539 168.971 62.7087 169.306 62.3918C169.516 62.1938 169.751 62.2462 169.996 62.1235C170.261 61.9911 170.333 61.5894 170.609 61.5392C170.887 61.4887 171.186 61.5812 171.462 61.52C171.842 61.4355 171.741 61.0003 171.989 60.859C172.856 60.3635 173.515 59.1628 174.268 58.5599C174.933 58.0284 175.349 56.7084 175.753 55.9447C175.988 55.5008 175.859 54.1007 175.859 55.3987C175.859 56.1708 175.987 57.0545 175.849 57.8127C175.773 58.2315 174.866 59.1467 174.613 59.4987C174.023 60.3224 173.447 60.876 172.755 61.5296C172.345 61.9171 171.871 62.0671 171.375 62.3151C170.992 62.507 170.604 62.8373 170.168 62.8995C170.077 62.9125 169.498 62.8445 169.498 62.9953C169.498 63.301 174.718 61.3297 175.035 61.1464C175.573 60.8355 176.947 60.1588 177.219 59.5466C177.361 59.2266 176.891 59.2785 176.721 59.288C175.848 59.3365 175.102 60.2804 174.479 60.8016C174.215 61.0228 172.773 62.4432 173.224 62.0182C173.362 61.8882 174.734 60.8247 174.814 61.1081C174.875 61.3208 174.773 61.5659 174.834 61.7787C174.982 62.2987 172.733 62.1834 173.272 62.2193C174.011 62.2686 173.779 63.2432 173.962 63.2539C174.059 63.2596 174.508 63.3762 174.163 63.4168C172.84 63.5724 171.443 63.2539 170.111 63.2539C170.075 63.2539 169.274 63.2348 169.354 63.1677C169.908 62.7063 172.054 63.0611 172.764 62.9857C173.452 62.9128 177.791 62.4654 177.755 61.2805C177.719 60.0666 174.95 60.7411 174.316 61.1847C173.674 61.6342 172.303 62.7391 174.115 62.5259C175.024 62.419 175.86 61.9651 176.165 61.0506C176.317 60.5939 175.124 60.9568 174.958 61.0506C174.545 61.2841 173.909 61.7285 173.809 62.2289C173.501 63.7684 175.665 62.4837 176.108 62.1619C177.423 61.2052 178.273 59.9199 178.273 58.33C178.273 56.8675 178.273 55.4051 178.273 53.9426" stroke="black" stroke-linecap="round"/>
</svg>
