<?xml version="1.0" ?>
<!-- Uploaded to: SVG Repo, www.svgrepo.com, Generator: SVG Repo Mixer Tools -->
<svg width="800px" height="800px" viewBox="0 0 64 64" version="1.1" xml:space="preserve" xmlns="http://www.w3.org/2000/svg" xmlns:xlink="http://www.w3.org/1999/xlink">
<style type="text/css">
	.st0{fill:none;stroke:#EDEDED;stroke-width:0.25;stroke-miterlimit:10;}
	.st1{fill:none;stroke:#BDBDBD;stroke-width:0.25;stroke-miterlimit:10;}
	.st2{fill:none;stroke:#000000;stroke-width:2;stroke-miterlimit:10;}
	.st3{fill:#35C6F4;}
	.st4{fill:#EA386E;}
	.st5{fill:#7065AD;}
	.st6{fill:#FDBE57;}
	.st7{fill:#7BC89C;}
	.st8{fill:#FDD304;}
	.st9{fill:#27255F;}
	.st10{fill:#00AEEF;}
</style>
<g id="Layer_1"/>
<g id="Layer_2">
<g>
<path d="M12.2,43.2c2.8,0,5.1-2.3,5.1-5.1c0-2.8-2.3-5.1-5.1-5.1c-2.8,0-5.1,2.3-5.1,5.1C7.1,40.9,9.4,43.2,12.2,43.2z M12.2,35    c1.7,0,3.1,1.4,3.1,3.1c0,1.7-1.4,3.1-3.1,3.1c-1.7,0-3.1-1.4-3.1-3.1C9.1,36.4,10.5,35,12.2,35z"/>
<path d="M14.3,43.9h-4.2C6.2,43.9,3,47.1,3,51v5.8h18.4V51C21.4,47.1,18.2,43.9,14.3,43.9z M19.4,54.8H5V51c0-1.4,0.6-2.7,1.5-3.6    c0.9-0.9,2.2-1.5,3.6-1.5h4.2c1.4,0,2.7,0.6,3.6,1.5c0.9,0.9,1.5,2.2,1.5,3.6V54.8z"/>
<path d="M46.7,38.1c0,2.8,2.3,5.1,5.1,5.1c2.8,0,5.1-2.3,5.1-5.1c0-2.8-2.3-5.1-5.1-5.1C49,33,46.7,35.3,46.7,38.1z M51.8,35    c1.7,0,3.1,1.4,3.1,3.1c0,1.7-1.4,3.1-3.1,3.1c-1.7,0-3.1-1.4-3.1-3.1C48.7,36.4,50.1,35,51.8,35z"/>
<path d="M53.9,43.9h-4.2c-3.9,0-7.1,3.2-7.1,7.1v5.8H61V51C61,47.1,57.8,43.9,53.9,43.9z M59,54.8H44.6V51c0-1.4,0.6-2.7,1.5-3.6    c0.9-0.9,2.2-1.5,3.6-1.5h4.2c1.4,0,2.7,0.6,3.6,1.5c0.9,0.9,1.5,2.2,1.5,3.6V54.8z"/>
<path d="M26.9,38.1c0,2.8,2.3,5.1,5.1,5.1c2.8,0,5.1-2.3,5.1-5.1c0-2.8-2.3-5.1-5.1-5.1C29.2,33,26.9,35.3,26.9,38.1z M32,35    c1.7,0,3.1,1.4,3.1,3.1c0,1.7-1.4,3.1-3.1,3.1c-1.7,0-3.1-1.4-3.1-3.1C28.9,36.4,30.3,35,32,35z"/>
<path d="M34.1,43.9h-4.2c-3.9,0-7.1,3.2-7.1,7.1v5.8h18.4V51C41.2,47.1,38,43.9,34.1,43.9z M39.2,54.8H24.8V51    c0-1.4,0.6-2.7,1.5-3.6c0.9-0.9,2.2-1.5,3.6-1.5h4.2c1.4,0,2.7,0.6,3.6,1.5c0.9,0.9,1.5,2.2,1.5,3.6V54.8z"/>
<path d="M22.1,17.4c2.8,0,5.1-2.3,5.1-5.1c0-2.8-2.3-5.1-5.1-5.1c-2.8,0-5.1,2.3-5.1,5.1C17,15.1,19.3,17.4,22.1,17.4z M22.1,9.2    c1.7,0,3.1,1.4,3.1,3.1c0,1.7-1.4,3.1-3.1,3.1c-1.7,0-3.1-1.4-3.1-3.1C19,10.5,20.4,9.2,22.1,9.2z"/>
<path d="M31.3,25.2c0-3.9-3.2-7.1-7.1-7.1H20c-3.9,0-7.1,3.2-7.1,7.1V31h18.4V25.2z M29.3,29H14.9v-3.8c0-1.4,0.6-2.7,1.5-3.6    c0.9-0.9,2.2-1.5,3.6-1.5h4.2c1.4,0,2.7,0.6,3.6,1.5c0.9,0.9,1.5,2.2,1.5,3.6V29z"/>
<path d="M41.9,17.4c2.8,0,5.1-2.3,5.1-5.1c0-2.8-2.3-5.1-5.1-5.1c-2.8,0-5.1,2.3-5.1,5.1C36.8,15.1,39.1,17.4,41.9,17.4z     M41.9,9.2c1.7,0,3.1,1.4,3.1,3.1c0,1.7-1.4,3.1-3.1,3.1c-1.7,0-3.1-1.4-3.1-3.1C38.8,10.5,40.2,9.2,41.9,9.2z"/>
<path d="M51.1,25.2c0-3.9-3.2-7.1-7.1-7.1h-4.2c-3.9,0-7.1,3.2-7.1,7.1V31h18.4V25.2z M49.1,29H34.7v-3.8c0-1.4,0.6-2.7,1.5-3.6    c0.9-0.9,2.2-1.5,3.6-1.5H44c1.4,0,2.7,0.6,3.6,1.5c0.9,0.9,1.5,2.2,1.5,3.6V29z"/>
</g>
</g>
</svg>