<?xml version="1.0" encoding="iso-8859-1"?>
<!-- Uploaded to: SVG Repo, www.svgrepo.com, Generator: SVG Repo Mixer Tools -->
<svg fill="#000000" version="1.1" id="Layer_1" xmlns="http://www.w3.org/2000/svg" xmlns:xlink="http://www.w3.org/1999/xlink" 
	 viewBox="0 0 491.523 491.523" xml:space="preserve">
<g>
	<g>
		
			<rect x="401.84" y="401.818" transform="matrix(0.7074 -0.7069 0.7069 0.7074 -170.6734 411.8717)" width="20.48" height="20.48"/>
	</g>
</g>
<g>
	<g>
		
			<rect x="365.641" y="365.638" transform="matrix(0.7071 -0.7071 0.7071 0.7071 -155.6926 375.8799)" width="20.48" height="20.48"/>
	</g>
</g>
<g>
	<g>
		<path d="M375.016,264.538l-47.996,47.996l-32.934-32.927c28.973-31.451,47.169-57.399,54.965-78.648
			c3.32-9.057,4.878-17.446,4.694-25.237c4.731,1.247,9.582,2.057,14.531,2.057c2.76,0,5.54-0.21,8.315-0.62
			c53.66-8.09,62.195-69.43,62.53-72.04c5.33-41.45,33.665-59.25,45.595-64.98c4.59-2.19,7.235-6.91,6.75-12.01
			c-0.49-5.12-4.14-9.42-9.08-10.72h-0.025c-94.07-24.44-142.05,24.99-162.265,56.61c-10.755,16.809-14.599,35.514-11.137,53.237
			c-8.932-0.957-18.638,0.388-29.308,4.302c-21.253,7.792-47.196,25.989-78.643,54.962L87.676,73.188v-34.15
			c0-3.6-1.885-6.93-4.97-8.78l-47.995-28.8c-4.03-2.41-9.19-1.77-12.51,1.54l-19.2,19.2c-3.325,3.32-3.96,8.48-1.54,12.51
			l28.795,47.99c1.85,3.08,5.185,4.97,8.78,4.97h34.16l112.951,112.951c-2.616,2.549-5.164,4.971-7.851,7.659
			c-56.23,56.23-207.82,230.97-172.38,266.41c3.64,3.64,8.75,5.31,15.05,5.31c55.04,0,200.91-127.23,251.365-177.68
			c2.687-2.687,5.107-5.235,7.656-7.85l32.553,32.546l-47.994,47.994l93.625,93.63c14.75,14.76,34.37,22.88,55.235,22.88
			c20.865,0,40.48-8.12,55.235-22.88c30.45-30.46,30.45-80.01,0-110.47L375.016,264.538z M67.196,67.188h-22.36l-21.7-36.16
			l7.89-7.9l36.17,21.71V67.188z M337.346,85.058c16.755-26.2,46.375-53.73,96.85-53.73c7.31,0,15.06,0.58,23.27,1.82
			c-15.815,12.33-34.1,33.91-38.65,69.32c-0.27,1.99-6.975,48.66-45.275,54.43c-10.473,1.609-20.961-1.696-29.311-8.435
			c-1.659-2.222-3.503-4.389-5.599-6.485c-0.788-0.788-1.625-1.407-2.431-2.133c-2.137-3.011-4.046-6.254-5.444-9.887
			C325.506,116.168,327.911,99.808,337.346,85.058z M286.701,150.788c6.635-2.43,12.165-3.43,16.845-3.43
			c7.331,0,12.586,2.447,16.758,5.674c2.636,3.529,5.612,6.709,8.864,9.564c4.258,6.706,6.236,16.091,0.653,31.311
			c-3.024,8.249-8.159,17.646-15.208,28.063L258.639,166C269.056,158.95,278.453,153.814,286.701,150.788z M257.851,287.838
			c-95.285,95.28-218.77,180.38-237.15,172.78c-8.36-19.15,76.795-142.58,172.075-237.86c18.091-18.091,34.466-32.828,49.204-44.457
			l60.333,60.329C290.683,253.369,275.944,269.745,257.851,287.838z M454.161,454.158c-10.89,10.89-25.36,16.88-40.755,16.88
			c-15.395,0-29.87-5.99-40.755-16.88l-79.145-79.15l81.51-81.51l79.145,79.15C476.626,395.118,476.626,431.688,454.161,454.158z"/>
	</g>
</g>
</svg>