<svg width="550" height="550" viewBox="0 0 550 550" fill="none" xmlns="http://www.w3.org/2000/svg">
<circle cx="275" cy="275" r="274" stroke="#363636" stroke-opacity="0.61" stroke-width="2"/>
<path d="M515.474 84.0322C518.217 105.833 502.768 125.73 480.968 128.474C459.167 131.217 439.27 115.768 436.526 93.9675C433.783 72.1667 449.232 52.2696 471.032 49.526C492.833 46.7825 512.73 62.2314 515.474 84.0322Z" fill="#F5F5F5" stroke="#2866DE"/>
<path d="M463.802 75.3393C463.847 75.1383 463.959 74.9583 464.118 74.8273C464.277 74.6963 464.475 74.6218 464.681 74.6155H467.635C468.043 74.6155 468.31 74.939 468.233 75.3393L466.282 85.493C466.236 85.6942 466.125 85.8746 465.966 86.0059C465.807 86.1372 465.609 86.2119 465.403 86.2183H462.449C462.358 86.2227 462.267 86.2058 462.183 86.169C462.1 86.1321 462.026 86.0764 461.968 86.0061C461.91 85.9359 461.869 85.8531 461.849 85.7643C461.828 85.6754 461.829 85.5831 461.85 85.4945L463.802 75.3393ZM471.187 75.3393C471.233 75.1383 471.344 74.9583 471.503 74.8273C471.662 74.6963 471.86 74.6218 472.066 74.6155H475.02C475.428 74.6155 475.696 74.939 475.619 75.3393L470.316 102.901C470.271 103.102 470.16 103.282 470.001 103.413C469.842 103.545 469.644 103.619 469.438 103.626H466.484C466.393 103.631 466.302 103.614 466.219 103.577C466.135 103.54 466.061 103.484 466.003 103.414C465.945 103.343 465.904 103.26 465.884 103.171C465.864 103.082 465.864 102.99 465.886 102.901L471.187 75.3393ZM478.573 75.3393C478.619 75.1383 478.73 74.9583 478.889 74.8273C479.048 74.6963 479.246 74.6218 479.452 74.6155H482.406C482.814 74.6155 483.081 74.939 483.004 75.3393L477.701 102.899C477.656 103.1 477.545 103.281 477.387 103.412C477.228 103.543 477.03 103.618 476.824 103.625H473.87C473.779 103.629 473.688 103.612 473.604 103.575C473.521 103.538 473.447 103.483 473.389 103.412C473.331 103.342 473.29 103.259 473.269 103.17C473.249 103.081 473.25 102.988 473.272 102.899L478.573 75.3393ZM485.959 75.3393C486.004 75.1383 486.115 74.9583 486.274 74.8273C486.433 74.6963 486.632 74.6218 486.837 74.6155H489.792C490.199 74.6155 490.467 74.939 490.39 75.3393L488.439 85.493C488.393 85.6942 488.282 85.8746 488.123 86.0059C487.964 86.1372 487.766 86.2119 487.56 86.2183H484.606C484.515 86.2227 484.424 86.2058 484.34 86.169C484.257 86.1321 484.183 86.0764 484.125 86.0061C484.067 85.9359 484.026 85.8531 484.006 85.7643C483.985 85.6754 483.986 85.5831 484.007 85.4945L485.959 75.3393Z" fill="#2866DE"/>
<path d="M111.371 448.132C114.171 469.991 98.8105 489.886 77.069 492.575C55.3275 495.263 35.4286 479.727 32.6288 457.868C29.8289 436.009 45.1895 416.114 66.931 413.425C88.6725 410.737 108.571 426.273 111.371 448.132Z" fill="#F5F5F5" stroke="#2866DE"/>
<g clip-path="url(#clip0_40_2)">
<path d="M62.0236 455.242L58.9854 451.695L60.2914 450.17L63.3279 453.719L66.3643 450.17L67.6704 451.695L64.6321 455.242L67.6704 458.789L66.3643 460.314L63.3279 456.765L60.2914 460.314L58.9854 458.789L62.0236 455.242Z" fill="#059669"/>
<path fill-rule="evenodd" clip-rule="evenodd" d="M61.6285 439.07C60.8908 439.07 60.1834 439.412 59.6618 440.021C59.1402 440.63 58.8472 441.456 58.8472 442.317V445.563H57.9201C57.1824 445.563 56.475 445.906 55.9534 446.514C55.4318 447.123 55.1388 447.949 55.1388 448.81V461.797C55.1388 462.658 55.4318 463.484 55.9534 464.092C56.475 464.701 57.1824 465.043 57.9201 465.043H58.8472V468.29C58.8472 469.151 59.1402 469.977 59.6618 470.586C60.1834 471.195 60.8908 471.537 61.6285 471.537H80.1704C80.908 471.537 81.6154 471.195 82.137 470.586C82.6586 469.977 82.9516 469.151 82.9516 468.29V442.317C82.9516 441.456 82.6586 440.63 82.137 440.021C81.6154 439.412 80.908 439.07 80.1704 439.07H61.6285ZM57.9201 447.728C57.6742 447.728 57.4384 447.842 57.2645 448.045C57.0907 448.248 56.993 448.523 56.993 448.81V461.797C56.993 462.084 57.0907 462.359 57.2645 462.562C57.4384 462.765 57.6742 462.879 57.9201 462.879H69.0452C69.2911 462.879 69.5269 462.765 69.7008 462.562C69.8746 462.359 69.9723 462.084 69.9723 461.797V448.81C69.9723 448.523 69.8746 448.248 69.7008 448.045C69.5269 447.842 69.2911 447.728 69.0452 447.728H57.9201Z" fill="#059669"/>
</g>
<path d="M108.474 94.0474C111.217 115.857 95.7683 135.761 73.9677 138.506C52.1671 141.25 32.2698 125.796 29.5262 103.986C26.7826 82.1772 42.2317 62.2726 64.0323 59.5281C85.8329 56.7835 105.73 72.2381 108.474 94.0474Z" fill="#F5F5F5" stroke="#2866DE"/>
<g clip-path="url(#clip1_40_2)">
<path d="M56.0329 112.191L53.3878 82.5132H82.4518L79.8038 112.186L67.9021 115.487L56.0329 112.191Z" fill="#E44D26"/>
<path d="M67.9198 112.964L77.5371 110.297L79.7999 84.9397H67.9198V112.964Z" fill="#F16529"/>
<path d="M67.9197 95.9467H63.105L62.7724 92.2192H67.9197V88.5796H58.796L58.8833 89.556L59.7774 99.5866H67.9197V95.9467ZM67.9197 105.4L67.9036 105.404L63.8516 104.309L63.5928 101.407H59.94L60.4497 107.122L67.9031 109.191L67.9197 109.187V105.4Z" fill="#EBEBEB"/>
<path d="M67.9071 95.9467V99.5866H72.3874L71.9652 104.307L67.9071 105.403V109.19L75.3663 107.122L75.4211 106.507L76.276 96.9242L76.3646 95.9467H75.3843H67.9071ZM67.9071 88.5796V92.2192H76.6959L76.7688 91.4015L76.9349 89.556L77.0218 88.5796H67.9071Z" fill="white"/>
</g>
<path d="M501.474 457.032C504.217 478.833 488.768 498.73 466.968 501.474C445.167 504.217 425.27 488.768 422.526 466.968C419.783 445.167 435.232 425.27 457.032 422.526C478.833 419.783 498.73 435.232 501.474 457.032Z" fill="#F5F5F5" stroke="#2866DE"/>
<g clip-path="url(#clip2_40_2)">
<path d="M451.666 479.486L449.072 450.383H477.584L474.987 479.482L463.311 482.719L451.666 479.486Z" fill="#1572B6"/>
<path d="M463.328 480.245L472.763 477.629L474.983 452.762H463.328V480.245Z" fill="#33A9DC"/>
<path d="M463.328 463.306H468.051L468.378 459.651H463.328V456.082H472.279L472.193 457.04L471.316 466.876H463.328V463.306Z" fill="white"/>
<path d="M463.349 472.577L463.334 472.581L459.359 471.508L459.104 468.661H455.522L456.022 474.266L463.333 476.295L463.349 476.29V472.577Z" fill="#EBEBEB"/>
<path d="M467.748 466.725L467.318 471.505L463.337 472.58V476.293L470.654 474.265L470.708 473.662L471.329 466.725H467.748Z" fill="white"/>
<path d="M463.34 456.082V459.651H454.718L454.647 458.849L454.484 457.04L454.399 456.082H463.34ZM463.328 463.307V466.876H459.403L459.332 466.074L459.169 464.265L459.084 463.307H463.328Z" fill="#EBEBEB"/>
</g>
<defs>
<clipPath id="clip0_40_2">
<rect width="27.671" height="32.3214" fill="white" transform="translate(55.0266 439.081)"/>
</clipPath>
<clipPath id="clip1_40_2">
<rect width="33.8395" height="33.8523" fill="white" transform="translate(51 82.0739)"/>
</clipPath>
<clipPath id="clip2_40_2">
<rect width="33.0338" height="33.0338" fill="white" transform="translate(446.811 450.034)"/>
</clipPath>
</defs>
</svg>
