<svg width="1013" height="1014" viewBox="0 0 1013 1014" fill="none" xmlns="http://www.w3.org/2000/svg">
<circle cx="505.5" cy="501.5" r="464.5" stroke="#363636" stroke-opacity="0.61" stroke-width="2"/>
<path d="M97.4912 471.692C100.665 498.393 82.7928 522.715 57.6354 526.066C32.4781 529.418 9.47045 510.543 6.29631 483.842C3.12216 457.14 20.9947 432.819 46.1521 429.467C71.3094 426.116 94.3171 444.991 97.4912 471.692Z" fill="#F5F5F5" stroke="#2866DE"/>
<path d="M43.4503 482.487C41.0724 484.317 37.7272 482.639 35.4118 486.779C35.0368 487.449 34.7005 488.625 34.2689 490.34C33.9297 491.682 32.1083 492.626 32.1083 492.626C32.1083 492.626 33.6767 494.556 35.1558 494.926C37.2957 495.465 40.37 495.735 42.4533 493.096C44.8282 490.088 43.7658 487.311 45.858 485.641C45.855 485.641 45.8282 480.654 43.4503 482.487Z" fill="#F09300"/>
<path d="M41.6855 483.345C41.4474 483.587 41.385 483.988 41.3939 484.355C41.4326 485.748 42.3909 487.035 43.5724 487.273C44.0516 487.37 44.6111 487.277 44.9057 486.827C45.2361 486.326 45.1111 485.599 44.8789 485.029C44.623 484.403 44.2569 483.839 43.8045 483.39" fill="#C67100"/>
<path d="M67.9885 455.573C67.9885 455.573 67.3992 454.654 65.8903 455.681C63.8398 457.074 57.203 462.815 49.2419 472.345C47.4502 474.489 46.7449 475.723 46.7449 475.723C46.7449 475.723 46.3015 476.512 48.0008 478.486C49.6972 480.457 51.2716 480.859 51.2716 480.859L52.6168 479.251C62.2178 467.763 67.051 460.397 67.9647 458.018C68.673 456.161 67.9885 455.573 67.9885 455.573Z" fill="#1565C0"/>
<path d="M48.8758 478.448C47.1765 476.529 46.9175 475.519 46.9175 475.519C46.9175 475.519 46.4086 475.903 46.1021 476.36C45.6378 477.051 45.5872 477.549 45.5872 477.549L41.7778 483.092C41.7778 483.092 41.2927 484.144 42.745 485.779C44.1944 487.415 45.0872 486.824 45.0872 486.824L49.7449 482.242C49.7449 482.242 50.1704 482.169 50.7538 481.609C51.1377 481.239 51.4532 480.637 51.4532 480.637C51.4532 480.637 50.5752 480.364 48.8758 478.448Z" fill="#BDBDBD"/>
<path d="M47.9978 478.483C47.9919 478.49 47.9889 478.497 47.9829 478.504C47.8788 478.642 47.6972 478.645 47.5395 478.611C46.9681 478.483 46.5723 478.04 46.3669 477.432C46.2717 477.145 46.2538 476.813 46.3699 476.536C46.5812 476.038 46.8907 476.373 47.1288 476.65C47.4301 477.002 47.6948 477.395 47.9175 477.819C47.971 477.923 48.0246 478.033 48.0454 478.154C48.0663 478.268 48.0574 478.393 47.9978 478.483Z" fill="#EEEEEE"/>
<path d="M49.9205 473.918C50.4562 475.305 54.9799 469.845 56.1257 468.427C56.6971 467.721 60.6465 463.593 59.7536 463.42C58.8608 463.247 56.8281 465.28 56.1555 465.902C54.8103 467.144 53.0871 469.105 51.7568 470.716C51.105 471.501 49.7181 473.396 49.9205 473.918Z" fill="#2196F3"/>
<path d="M44.6051 479.928C44.7271 479.78 44.8729 479.617 45.0634 479.617C45.242 479.617 45.3908 479.762 45.5128 479.901C45.9146 480.357 46.2866 480.99 46.0693 481.56C45.9801 481.792 45.8075 481.972 45.6378 482.145L43.6498 484.185C43.251 484.593 42.873 484.061 42.7242 483.653C42.5903 483.279 42.6914 482.982 42.8641 482.653C43.3611 481.688 43.9325 480.762 44.6051 479.928Z" fill="#EEEEEE"/>
<path d="M49.2924 481.892C49.3609 481.948 49.4353 482.024 49.4264 482.117C49.421 482.153 49.4076 482.186 49.3877 482.214C49.2299 482.466 48.9115 482.518 48.6555 482.418C48.4026 482.318 48.1972 482.1 48.0008 481.889C47.2538 481.073 46.5157 480.226 45.98 479.209C45.8967 479.053 45.4651 478.151 45.7628 478.064C45.9532 478.009 46.3818 478.811 46.5038 478.977C47.0346 479.683 47.6106 480.341 48.227 480.945C48.5722 481.277 48.9264 481.595 49.2924 481.892Z" fill="#9E9E9E"/>
<path d="M42.4504 493.096C42.4504 493.096 39.5963 494.957 36.5606 494.431C36.5606 494.431 38.9623 493.923 39.9802 490.143C39.9802 490.143 37.6677 492.941 35.5785 493.131C35.5785 493.131 37.5725 491.924 37.7005 488.266C36.635 490.472 35.9356 491.575 34.2392 492.242C36.0636 489.963 35.3999 486.796 35.3999 486.796C35.0279 487.47 34.6946 488.636 34.266 490.337C33.9267 491.679 32.1053 492.623 32.1053 492.623C32.1053 492.623 33.6738 494.552 35.1529 494.922C37.2927 495.465 40.3701 495.731 42.4504 493.096Z" fill="#C67100"/>
<circle cx="854.084" cy="189" r="49.5" fill="#F5F5F5" stroke="#2866DE"/>
<g clip-path="url(#clip0_35_16)">
<path d="M855.94 173.009C847.33 173.009 847.868 176.648 847.868 176.648L847.877 180.417H856.093V181.549H844.614C844.614 181.549 839.104 180.94 839.104 189.405C839.104 197.871 843.913 197.571 843.913 197.571H846.783V193.643C846.783 193.643 846.628 188.957 851.515 188.957H859.664C859.664 188.957 864.243 189.029 864.243 184.645V177.396C864.243 177.396 864.938 173.009 855.94 173.009ZM851.409 175.544C851.604 175.544 851.796 175.581 851.975 175.653C852.155 175.726 852.318 175.832 852.455 175.966C852.592 176.099 852.701 176.258 852.775 176.433C852.85 176.608 852.888 176.795 852.888 176.985C852.888 177.174 852.85 177.361 852.775 177.536C852.701 177.711 852.592 177.87 852.455 178.003C852.318 178.137 852.155 178.243 851.975 178.316C851.796 178.388 851.604 178.425 851.409 178.425C851.215 178.425 851.023 178.388 850.844 178.316C850.664 178.243 850.501 178.137 850.364 178.003C850.227 177.87 850.118 177.711 850.044 177.536C849.969 177.361 849.931 177.174 849.931 176.985C849.931 176.795 849.969 176.608 850.044 176.433C850.118 176.258 850.227 176.099 850.364 175.966C850.501 175.832 850.664 175.726 850.844 175.653C851.023 175.581 851.215 175.544 851.409 175.544Z" fill="url(#paint0_linear_35_16)"/>
<path d="M856.185 205.887C864.795 205.887 864.257 202.248 864.257 202.248L864.247 198.479H856.031V197.347H867.511C867.511 197.347 873.02 197.956 873.02 189.491C873.02 181.025 868.211 181.325 868.211 181.325H865.341V185.253C865.341 185.253 865.496 189.939 860.609 189.939H852.46C852.46 189.939 847.882 189.867 847.882 194.251V201.5C847.882 201.5 847.187 205.887 856.184 205.887M860.715 203.352C860.521 203.352 860.329 203.315 860.149 203.243C859.97 203.171 859.807 203.065 859.669 202.931C859.532 202.797 859.423 202.638 859.349 202.463C859.275 202.288 859.237 202.101 859.237 201.912C859.237 201.723 859.275 201.535 859.349 201.36C859.423 201.186 859.532 201.027 859.669 200.893C859.807 200.759 859.97 200.653 860.149 200.581C860.329 200.508 860.521 200.471 860.715 200.471C860.909 200.471 861.101 200.508 861.281 200.581C861.46 200.653 861.623 200.759 861.761 200.893C861.898 201.027 862.007 201.186 862.081 201.36C862.155 201.535 862.193 201.723 862.193 201.912C862.193 202.101 862.155 202.288 862.081 202.463C862.007 202.638 861.898 202.797 861.761 202.931C861.623 203.064 861.46 203.17 861.281 203.243C861.101 203.315 860.909 203.352 860.715 203.352Z" fill="url(#paint1_linear_35_16)"/>
</g>
<circle cx="501.936" cy="55.8518" r="49.5" transform="rotate(-7.17281 501.936 55.8518)" fill="#F5F5F5" stroke="#2866DE"/>
<g clip-path="url(#clip1_35_16)">
<path fill-rule="evenodd" clip-rule="evenodd" d="M495.084 48H485.484V64H488.684V60.8H495.084C496.781 60.8 498.409 60.1257 499.609 58.9255C500.81 57.7252 501.484 56.0974 501.484 54.4C501.484 52.7026 500.81 51.0747 499.609 49.8745C498.409 48.6743 496.781 48 495.084 48ZM495.084 57.6H488.684V51.2H495.084C495.933 51.2 496.747 51.5371 497.347 52.1373C497.947 52.7374 498.284 53.5513 498.284 54.4C498.284 55.2487 497.947 56.0626 497.347 56.6627C496.747 57.2629 495.933 57.6 495.084 57.6Z" fill="#EA580C"/>
<path fill-rule="evenodd" clip-rule="evenodd" d="M503.084 32C499.358 31.9975 495.682 32.8639 492.349 34.5304C489.016 36.1968 486.118 38.6175 483.884 41.6C482.611 41.6 481.39 42.1057 480.49 43.0059C479.59 43.9061 479.084 45.127 479.084 46.4V65.6C479.084 66.873 479.59 68.0939 480.49 68.9941C481.39 69.8943 482.611 70.4 483.884 70.4C486.338 73.6728 489.589 76.2638 493.326 77.927C497.064 79.5902 501.165 80.2704 505.239 79.903C509.314 79.5356 513.227 78.1329 516.606 75.8279C519.986 73.5229 522.721 70.3922 524.55 66.7331C526.38 63.0741 527.243 59.0081 527.06 54.9213C526.876 50.8344 525.65 46.8624 523.499 43.3825C521.349 39.9025 518.344 37.03 514.771 35.0379C511.198 33.0457 507.175 32 503.084 32ZM482.284 46.4C482.284 45.9757 482.452 45.5687 482.752 45.2686C483.053 44.9686 483.46 44.8 483.884 44.8H503.084C503.501 44.7999 503.902 44.9627 504.201 45.2538C504.5 45.545 504.673 45.9413 504.684 46.3584V65.6416C504.673 66.0587 504.5 66.4551 504.201 66.7462C503.902 67.0373 503.501 67.2002 503.084 67.2H483.884C483.46 67.2 483.053 67.0314 482.752 66.7314C482.452 66.4313 482.284 66.0244 482.284 65.6V46.4Z" fill="#EA580C"/>
</g>
<circle cx="505.936" cy="957.852" r="49.5" transform="rotate(-7.17281 505.936 957.852)" fill="#F5F5F5" stroke="#2866DE"/>
<g clip-path="url(#clip2_35_16)">
<path d="M489.37 954.603L493.619 966.079C493.719 966.349 493.872 966.582 494.059 966.75C494.247 966.919 494.461 967.015 494.676 967.028C494.89 967.04 495.096 966.969 495.268 966.822C495.44 966.675 495.571 966.458 495.645 966.199L496.447 963.38L498.166 965.755C498.324 965.973 498.521 966.132 498.733 966.211C498.945 966.29 499.163 966.287 499.36 966.202C499.557 966.117 499.725 965.953 499.844 965.73C499.963 965.508 500.027 965.237 500.028 964.949L500.096 952.712L497.876 952.364L497.827 961.245L496.729 959.727C496.595 959.541 496.432 959.399 496.255 959.311C496.078 959.224 495.892 959.194 495.715 959.225C495.537 959.257 495.373 959.348 495.237 959.491C495.1 959.633 494.996 959.823 494.933 960.044L494.421 961.846L491.337 953.517L489.37 954.603Z" fill="#2866DE"/>
<path fill-rule="evenodd" clip-rule="evenodd" d="M489.637 937.376C488.779 937.527 488.038 938.141 487.578 939.082C487.118 940.023 486.976 941.214 487.184 942.393L487.968 946.84L486.889 947.03C486.03 947.181 485.29 947.795 484.83 948.736C484.37 949.677 484.228 950.868 484.436 952.047L487.572 969.832C487.78 971.012 488.32 972.082 489.074 972.809C489.829 973.536 490.735 973.859 491.593 973.708L492.672 973.518L493.456 977.964C493.664 979.143 494.204 980.214 494.959 980.941C495.713 981.668 496.619 981.991 497.477 981.84L519.058 978.034C519.916 977.883 520.657 977.269 521.117 976.328C521.577 975.388 521.719 974.196 521.511 973.017L515.239 937.446C515.031 936.267 514.49 935.196 513.736 934.469C512.982 933.743 512.076 933.419 511.218 933.571L489.637 937.376ZM487.412 949.994C487.125 950.044 486.879 950.249 486.725 950.563C486.572 950.876 486.525 951.273 486.594 951.666L489.73 969.452C489.799 969.845 489.979 970.202 490.231 970.444C490.482 970.686 490.784 970.794 491.07 970.744L504.019 968.461C504.305 968.41 504.552 968.206 504.705 967.892C504.858 967.578 504.906 967.181 504.836 966.788L501.7 949.003C501.631 948.61 501.451 948.253 501.199 948.01C500.948 947.768 500.646 947.66 500.36 947.711L487.412 949.994Z" fill="#2866DE"/>
</g>
<path d="M185.494 206.671C188.89 233.798 169.768 258.551 142.79 261.964C115.813 265.377 91.1861 246.159 87.7902 219.032C84.3944 191.906 103.516 167.152 130.494 163.739C157.472 160.326 182.098 179.545 185.494 206.671Z" fill="#F5F5F5" stroke="#2866DE"/>
<path d="M143.635 214.763C143.587 214.851 143.558 214.948 143.548 215.049C143.538 215.149 143.548 215.25 143.577 215.346C143.606 215.443 143.653 215.532 143.717 215.61C143.78 215.688 143.858 215.753 143.947 215.8C144.365 216.026 145.22 216.182 145.809 216.268C146.14 216.316 146.365 216.656 146.269 216.978C145.301 220.237 142.452 221.578 138.731 222.063V224.438C143.516 224.889 147.26 228.938 147.26 233.866C147.26 234.74 146.555 235.449 145.686 235.449H122.351C121.481 235.449 120.776 234.74 120.776 233.866C120.776 228.938 124.52 224.889 129.305 224.438V221.247C126.374 219.868 124.506 217.31 123.315 214.61C123.141 214.644 123.031 214.649 123.004 214.62C121.223 212.702 119.455 207.746 119.455 202.811C119.455 197.876 122.812 189.259 132.05 189.259C137.365 189.259 144.766 190.474 145 190.668C145.236 190.863 144.508 192.393 144.742 192.617C145.229 193.084 145.713 193.615 146.204 194.219C146.619 194.729 146.073 195.03 144.225 195.147C145.9 196.953 146.868 199.42 146.868 202.534L146.834 204.258L146.834 204.257C146.834 204.257 146.834 204.258 146.834 204.258L146.834 204.285C146.876 204.627 147.94 207.984 148.633 209.433C149.416 211.073 148.382 211.434 146.692 211.487L146.637 214.28C146.637 214.792 145.164 214.717 144.667 214.45C144.291 214.249 143.831 214.391 143.635 214.763ZM150.998 212.253L159.332 208.353C159.371 208.335 159.405 208.308 159.432 208.275C159.46 208.242 159.48 208.204 159.492 208.162C159.503 208.121 159.506 208.077 159.499 208.034C159.492 207.992 159.477 207.951 159.453 207.915L158.17 205.967C158.147 205.931 158.116 205.901 158.079 205.878C158.043 205.855 158.002 205.841 157.959 205.835C157.917 205.829 157.874 205.833 157.833 205.846C157.792 205.858 157.754 205.88 157.722 205.908L150.853 212.031C150.738 212.134 150.859 212.318 150.998 212.253ZM150.888 217.973L157.643 224.089C157.675 224.117 157.713 224.139 157.754 224.151C157.795 224.164 157.839 224.167 157.881 224.162C157.924 224.156 157.964 224.141 158.001 224.118C158.037 224.095 158.068 224.065 158.092 224.029L159.369 222.079C159.393 222.043 159.409 222.002 159.415 221.96C159.422 221.917 159.419 221.874 159.408 221.832C159.396 221.79 159.376 221.752 159.348 221.719C159.32 221.686 159.286 221.66 159.247 221.641L151.034 217.752C150.895 217.687 150.774 217.87 150.888 217.973ZM151.176 215.167L161.445 216.509C161.487 216.514 161.53 216.511 161.571 216.498C161.612 216.486 161.649 216.465 161.681 216.437C161.713 216.408 161.739 216.374 161.757 216.335C161.774 216.296 161.783 216.253 161.783 216.21V213.866C161.783 213.824 161.774 213.781 161.757 213.742C161.739 213.703 161.713 213.669 161.681 213.64C161.649 213.612 161.612 213.591 161.571 213.578C161.53 213.566 161.487 213.562 161.445 213.568L151.176 214.91C151.027 214.93 151.027 215.147 151.176 215.167Z" fill="#48677E"/>
<circle cx="838.936" cy="845.852" r="49.5" transform="rotate(-7.17281 838.936 845.852)" fill="#F5F5F5" stroke="#2866DE"/>
<path d="M855.753 831.553L839.15 821.997C838.875 821.825 838.496 821.756 838.084 821.756C837.671 821.756 837.293 821.859 837.018 821.997L820.518 831.587C819.934 831.931 819.521 832.791 819.521 833.444V852.591C819.521 852.969 819.59 853.416 819.865 853.794L856.578 832.481C856.371 832.069 856.062 831.759 855.753 831.553Z" fill="#659AD3"/>
<path d="M819.762 853.759C819.934 854.034 820.175 854.275 820.415 854.413L836.984 864.003C837.259 864.175 837.637 864.244 838.05 864.244C838.462 864.244 838.84 864.141 839.115 864.003L855.615 854.413C856.2 854.069 856.612 853.209 856.612 852.556V833.409C856.612 833.1 856.578 832.756 856.406 832.447L819.762 853.759Z" fill="#03599C"/>
<path d="M845.406 847.159C843.962 849.703 841.212 851.422 838.084 851.422C833.443 851.422 829.662 847.641 829.662 843C829.662 838.359 833.443 834.578 838.084 834.578C841.212 834.578 843.962 836.297 845.406 838.875L849.875 836.297C847.537 832.206 843.137 829.422 838.084 829.422C830.59 829.422 824.506 835.506 824.506 843C824.506 850.494 830.59 856.578 838.084 856.578C843.103 856.578 847.503 853.828 849.84 849.772L845.406 847.159Z" fill="white"/>
<path d="M189.494 775.671C192.89 802.798 173.768 827.551 146.79 830.964C119.813 834.377 95.1861 815.159 91.7902 788.032C88.3944 760.906 107.516 736.152 134.494 732.739C161.472 729.326 186.098 748.545 189.494 775.671Z" fill="#F5F5F5" stroke="#2866DE"/>
<g clip-path="url(#clip3_35_16)">
<path d="M140.209 759.406C142.216 759.406 144.223 759.516 146.229 759.736C146.581 759.78 147.086 759.846 147.745 759.934C148.405 760.021 149.144 760.153 149.965 760.329C150.785 760.505 151.605 760.71 152.426 760.944C153.246 761.179 154.015 761.464 154.733 761.801C155.451 762.138 156.015 762.512 156.425 762.922C156.835 763.332 157.055 763.801 157.084 764.328V796.672C157.084 797.185 156.864 797.646 156.425 798.056C155.985 798.466 155.421 798.84 154.733 799.177C154.044 799.514 153.283 799.799 152.448 800.034C151.613 800.268 150.785 800.473 149.965 800.649C149.144 800.825 148.412 800.964 147.767 801.066C147.123 801.169 146.61 801.235 146.229 801.264C144.223 801.484 142.216 801.594 140.209 801.594C138.187 801.594 136.181 801.484 134.188 801.264C133.837 801.235 133.331 801.169 132.672 801.066C132.013 800.964 131.273 800.832 130.453 800.671C129.633 800.51 128.812 800.305 127.992 800.056C127.172 799.807 126.403 799.521 125.685 799.199C124.967 798.876 124.403 798.503 123.993 798.078C123.583 797.653 123.363 797.185 123.334 796.672V791.75H113.952C113.439 791.75 112.999 791.567 112.633 791.201C112.267 790.834 112.084 790.395 112.084 789.882V771.118C112.084 770.605 112.267 770.166 112.633 769.799C112.999 769.433 113.439 769.25 113.952 769.25H123.334V764.328C123.334 763.815 123.554 763.354 123.993 762.944C124.432 762.534 124.996 762.16 125.685 761.823C126.373 761.486 127.135 761.201 127.97 760.966C128.805 760.732 129.633 760.527 130.453 760.351C131.273 760.175 132.006 760.043 132.65 759.956C133.295 759.868 133.807 759.794 134.188 759.736C136.181 759.516 138.187 759.406 140.209 759.406ZM140.209 762.219C139.257 762.219 138.195 762.248 137.023 762.307C135.851 762.365 134.664 762.482 133.463 762.658C132.262 762.834 131.083 763.046 129.926 763.295C128.768 763.544 127.758 763.889 126.893 764.328C127.802 764.753 128.82 765.097 129.948 765.361C131.076 765.625 132.24 765.837 133.441 765.998C134.642 766.159 135.822 766.269 136.979 766.328C138.136 766.386 139.213 766.423 140.209 766.438C141.19 766.438 142.26 766.408 143.417 766.35C144.574 766.291 145.753 766.181 146.954 766.02C148.156 765.859 149.32 765.646 150.448 765.383C151.576 765.119 152.601 764.768 153.524 764.328C152.645 763.918 151.635 763.581 150.492 763.317C149.349 763.054 148.178 762.834 146.976 762.658C145.775 762.482 144.581 762.373 143.395 762.329C142.208 762.285 141.146 762.248 140.209 762.219ZM120.939 784.521H125.707L126.828 787.883H130.585L125.202 773.117H121.532L116.083 787.883H119.818L120.939 784.521ZM154.271 796.21V789.553C153.305 789.978 152.228 790.329 151.041 790.607C149.855 790.886 148.624 791.105 147.35 791.267C146.076 791.428 144.83 791.552 143.615 791.64C142.399 791.728 141.264 791.765 140.209 791.75C139.14 791.75 138.078 791.721 137.023 791.662C135.968 791.604 134.906 791.508 133.837 791.376C133.5 791.625 133.126 791.75 132.716 791.75H126.146V796.21C126.571 796.547 127.142 796.848 127.86 797.111C128.578 797.375 129.369 797.602 130.233 797.792C131.098 797.983 132.013 798.137 132.98 798.254C133.947 798.371 134.87 798.474 135.748 798.562C136.627 798.649 137.47 798.708 138.275 798.737C139.081 798.767 139.725 798.781 140.209 798.781C140.722 798.781 141.366 798.767 142.142 798.737C142.919 798.708 143.754 798.657 144.647 798.583C145.541 798.51 146.471 798.408 147.438 798.276C148.405 798.144 149.313 797.983 150.162 797.792C151.012 797.602 151.81 797.375 152.557 797.111C153.305 796.848 153.876 796.547 154.271 796.21ZM154.271 786.411V778.303C153.305 778.728 152.228 779.079 151.041 779.357C149.855 779.636 148.624 779.855 147.35 780.017C146.076 780.178 144.83 780.302 143.615 780.39C142.399 780.478 141.264 780.515 140.209 780.5C139.271 780.5 138.334 780.478 137.396 780.434C136.459 780.39 135.521 780.317 134.584 780.214V788.652C135.521 788.754 136.459 788.828 137.396 788.872C138.334 788.916 139.271 788.938 140.209 788.938C140.751 788.938 141.41 788.923 142.186 788.894C142.963 788.864 143.79 788.813 144.669 788.74C145.548 788.667 146.464 788.564 147.416 788.432C148.368 788.3 149.269 788.139 150.119 787.949C150.968 787.758 151.759 787.539 152.492 787.29C153.224 787.041 153.817 786.748 154.271 786.411ZM154.271 775.161V767.053C153.305 767.478 152.228 767.829 151.041 768.107C149.855 768.386 148.624 768.605 147.35 768.767C146.076 768.928 144.83 769.052 143.615 769.14C142.399 769.228 141.264 769.265 140.209 769.25C139.169 769.25 138.034 769.213 136.803 769.14C135.573 769.067 134.328 768.95 133.068 768.789C131.808 768.627 130.585 768.4 129.398 768.107C128.212 767.814 127.128 767.463 126.146 767.053V769.25H132.716C133.229 769.25 133.668 769.433 134.035 769.799C134.401 770.166 134.584 770.605 134.584 771.118V777.402C135.521 777.504 136.459 777.578 137.396 777.622C138.334 777.666 139.271 777.688 140.209 777.688C140.751 777.688 141.41 777.673 142.186 777.644C142.963 777.614 143.79 777.563 144.669 777.49C145.548 777.417 146.464 777.314 147.416 777.182C148.368 777.05 149.269 776.889 150.119 776.699C150.968 776.508 151.759 776.289 152.492 776.04C153.224 775.791 153.817 775.498 154.271 775.161ZM121.796 781.665L123.312 777.072L124.784 781.665H121.796Z" fill="#E11D48"/>
</g>
<circle cx="962.084" cy="473" r="49.5" fill="#F5F5F5" stroke="#2866DE"/>
<path d="M955.856 484.795C955.856 484.795 954.069 485.835 957.13 486.186C960.84 486.61 962.735 486.549 966.822 485.777C966.822 485.777 967.899 486.45 969.4 487.033C960.235 490.96 948.659 486.806 955.856 484.795ZM954.736 479.671C954.736 479.671 952.73 481.155 955.795 481.473C959.757 481.882 962.886 481.915 968.302 480.873C968.302 480.873 969.05 481.632 970.227 482.047C959.149 485.287 946.81 482.302 954.736 479.671Z" fill="#0074BD"/>
<path d="M964.176 470.977C966.435 473.577 963.583 475.915 963.583 475.915C963.583 475.915 969.317 472.956 966.684 469.249C964.224 465.793 962.339 464.077 972.547 458.156C972.547 458.157 956.523 462.158 964.176 470.977Z" fill="#EA2D2E"/>
<path d="M976.296 488.586C976.296 488.586 977.62 489.677 974.838 490.52C969.55 492.122 952.823 492.605 948.178 490.585C946.509 489.858 949.64 488.85 950.625 488.638C951.652 488.415 952.239 488.456 952.239 488.456C950.381 487.148 940.234 491.024 947.085 492.136C965.768 495.165 981.142 490.772 976.296 488.586ZM956.717 474.36C956.717 474.36 948.21 476.381 953.705 477.116C956.025 477.426 960.649 477.355 964.959 476.993C968.48 476.698 972.014 476.066 972.014 476.066C972.014 476.066 970.773 476.598 969.875 477.211C961.234 479.483 944.546 478.425 949.351 476.101C953.413 474.137 956.717 474.36 956.717 474.36ZM971.978 482.89C980.761 478.328 976.7 473.943 973.865 474.533C973.172 474.678 972.862 474.803 972.862 474.803C972.862 474.803 973.12 474.399 973.612 474.225C979.219 472.254 983.531 480.038 971.803 483.122C971.803 483.121 971.938 482.999 971.978 482.89Z" fill="#0074BD"/>
<path d="M966.684 448.595C966.684 448.595 971.547 453.461 962.07 460.941C954.471 466.944 960.338 470.365 962.068 474.276C957.631 470.274 954.377 466.75 956.56 463.47C959.765 458.658 968.646 456.323 966.684 448.595Z" fill="#EA2D2E"/>
<path d="M957.58 495.258C966.009 495.797 978.955 494.958 979.262 490.969C979.262 490.969 978.673 492.481 972.295 493.681C965.101 495.035 956.225 494.878 950.963 494.009C950.963 494.009 952.041 494.902 957.58 495.258Z" fill="#0074BD"/>
<defs>
<linearGradient id="paint0_linear_35_16" x1="1165.03" y1="468.723" x2="2802.74" y2="2132.59" gradientUnits="userSpaceOnUse">
<stop stop-color="#387EB8"/>
<stop offset="1" stop-color="#366994"/>
</linearGradient>
<linearGradient id="paint1_linear_35_16" x1="1328.95" y1="686.806" x2="3089.76" y2="2394.99" gradientUnits="userSpaceOnUse">
<stop stop-color="#FFE052"/>
<stop offset="1" stop-color="#FFC331"/>
</linearGradient>
<clipPath id="clip0_35_16">
<rect width="34" height="33" fill="white" transform="translate(839.084 173)"/>
</clipPath>
<clipPath id="clip1_35_16">
<rect width="48" height="48" fill="white" transform="translate(479.084 32)"/>
</clipPath>
<clipPath id="clip2_35_16">
<rect width="32.8701" height="45.1495" fill="white" transform="translate(482.084 938.708) rotate(-10)"/>
</clipPath>
<clipPath id="clip3_35_16">
<rect width="45" height="45" fill="white" transform="translate(112.084 758)"/>
</clipPath>
</defs>
</svg>
